<?xml version="1.0" encoding="us-ascii" standalone="no"?><svg xmlns="http://www.w3.org/2000/svg" xmlns:xlink="http://www.w3.org/1999/xlink" contentStyleType="text/css" height="838px" preserveAspectRatio="none" style="width:541px;height:838px;background:#FFFFFF;" version="1.1" viewBox="0 0 541 838" width="541px" zoomAndPan="magnify"><defs/><g><text fill="#000000" font-family="sans-serif" font-size="14" font-weight="bold" lengthAdjust="spacing" textLength="324" x="101.5" y="24.9659">Brokerage System - Microservices Architecture</text><!--cluster Frontend Layer--><g id="cluster_Frontend Layer"><path d="M199.5,46.6699 L306.5,46.6699 A3.75,3.75 0 0 1 309,49.1699 L316,71.7378 L378.5,71.7378 A2.5,2.5 0 0 1 381,74.2378 L381,147.1699 A2.5,2.5 0 0 1 378.5,149.6699 L199.5,149.6699 A2.5,2.5 0 0 1 197,147.1699 L197,49.1699 A2.5,2.5 0 0 1 199.5,46.6699 " fill="none" style="stroke:#000000;stroke-width:1.5;"/><line style="stroke:#000000;stroke-width:1.5;" x1="197" x2="316" y1="71.7378" y2="71.7378"/><text fill="#000000" font-family="sans-serif" font-size="14" font-weight="bold" lengthAdjust="spacing" textLength="106" x="201" y="63.6358">Frontend Layer</text></g><!--cluster API Gateway Layer--><g id="cluster_API Gateway Layer"><path d="M213.5,182.6699 L344.5,182.6699 A3.75,3.75 0 0 1 347,185.1699 L354,207.7378 L364.5,207.7378 A2.5,2.5 0 0 1 367,210.2378 L367,283.1699 A2.5,2.5 0 0 1 364.5,285.6699 L213.5,285.6699 A2.5,2.5 0 0 1 211,283.1699 L211,185.1699 A2.5,2.5 0 0 1 213.5,182.6699 " fill="none" style="stroke:#000000;stroke-width:1.5;"/><line style="stroke:#000000;stroke-width:1.5;" x1="211" x2="354" y1="207.7378" y2="207.7378"/><text fill="#000000" font-family="sans-serif" font-size="14" font-weight="bold" lengthAdjust="spacing" textLength="130" x="215" y="199.6358">API Gateway Layer</text></g><!--cluster Core Services--><g id="cluster_Core Services"><path d="M8.5,318.6699 L101.5,318.6699 A3.75,3.75 0 0 1 104,321.1699 L111,343.7378 L531.5,343.7378 A2.5,2.5 0 0 1 534,346.2378 L534,419.1699 A2.5,2.5 0 0 1 531.5,421.6699 L8.5,421.6699 A2.5,2.5 0 0 1 6,419.1699 L6,321.1699 A2.5,2.5 0 0 1 8.5,318.6699 " fill="none" style="stroke:#000000;stroke-width:1.5;"/><line style="stroke:#000000;stroke-width:1.5;" x1="6" x2="111" y1="343.7378" y2="343.7378"/><text fill="#000000" font-family="sans-serif" font-size="14" font-weight="bold" lengthAdjust="spacing" textLength="92" x="10" y="335.6358">Core Services</text></g><!--cluster Infrastructure--><g id="cluster_Infrastructure"><path d="M140.5,472.6699 L238.5,472.6699 A3.75,3.75 0 0 1 241,475.1699 L248,497.7378 L437.5,497.7378 A2.5,2.5 0 0 1 440,500.2378 L440,829.1699 A2.5,2.5 0 0 1 437.5,831.6699 L140.5,831.6699 A2.5,2.5 0 0 1 138,829.1699 L138,475.1699 A2.5,2.5 0 0 1 140.5,472.6699 " fill="none" style="stroke:#000000;stroke-width:1.5;"/><line style="stroke:#000000;stroke-width:1.5;" x1="138" x2="248" y1="497.7378" y2="497.7378"/><text fill="#000000" font-family="sans-serif" font-size="14" font-weight="bold" lengthAdjust="spacing" textLength="97" x="142" y="489.6358">Infrastructure</text></g><!--entity UI--><g id="elem_UI"><rect fill="#F1F1F1" height="49.0679" rx="2.5" ry="2.5" style="stroke:#181818;stroke-width:0.5;" width="152" x="213" y="84.6699"/><rect fill="#F1F1F1" height="10" style="stroke:#181818;stroke-width:0.5;" width="15" x="345" y="89.6699"/><rect fill="#F1F1F1" height="2" style="stroke:#181818;stroke-width:0.5;" width="4" x="343" y="91.6699"/><rect fill="#F1F1F1" height="2" style="stroke:#181818;stroke-width:0.5;" width="4" x="343" y="95.6699"/><text fill="#000000" font-family="sans-serif" font-size="14" lengthAdjust="spacing" textLength="112" x="228" y="119.6358">Web/Mobile App</text></g><!--entity Gateway--><g id="elem_Gateway"><rect fill="#F1F1F1" height="49.0679" rx="2.5" ry="2.5" style="stroke:#181818;stroke-width:0.5;" width="123" x="227.5" y="220.6699"/><rect fill="#F1F1F1" height="10" style="stroke:#181818;stroke-width:0.5;" width="15" x="330.5" y="225.6699"/><rect fill="#F1F1F1" height="2" style="stroke:#181818;stroke-width:0.5;" width="4" x="328.5" y="227.6699"/><rect fill="#F1F1F1" height="2" style="stroke:#181818;stroke-width:0.5;" width="4" x="328.5" y="231.6699"/><text fill="#000000" font-family="sans-serif" font-size="14" lengthAdjust="spacing" textLength="83" x="242.5" y="255.6358">API Gateway</text></g><!--entity UserSrv--><g id="elem_UserSrv"><rect fill="#F1F1F1" height="49.0679" rx="2.5" ry="2.5" style="stroke:#181818;stroke-width:0.5;" width="165" x="22.5" y="356.6699"/><rect fill="#F1F1F1" height="10" style="stroke:#181818;stroke-width:0.5;" width="15" x="167.5" y="361.6699"/><rect fill="#F1F1F1" height="2" style="stroke:#181818;stroke-width:0.5;" width="4" x="165.5" y="363.6699"/><rect fill="#F1F1F1" height="2" style="stroke:#181818;stroke-width:0.5;" width="4" x="165.5" y="367.6699"/><text fill="#000000" font-family="sans-serif" font-size="14" lengthAdjust="spacing" textLength="125" x="37.5" y="391.6358">User Management</text></g><!--entity OrderSrv--><g id="elem_OrderSrv"><rect fill="#F1F1F1" height="49.0679" rx="2.5" ry="2.5" style="stroke:#181818;stroke-width:0.5;" width="132" x="223" y="356.6699"/><rect fill="#F1F1F1" height="10" style="stroke:#181818;stroke-width:0.5;" width="15" x="335" y="361.6699"/><rect fill="#F1F1F1" height="2" style="stroke:#181818;stroke-width:0.5;" width="4" x="333" y="363.6699"/><rect fill="#F1F1F1" height="2" style="stroke:#181818;stroke-width:0.5;" width="4" x="333" y="367.6699"/><text fill="#000000" font-family="sans-serif" font-size="14" lengthAdjust="spacing" textLength="92" x="238" y="391.6358">Order Service</text></g><!--entity StockSrv--><g id="elem_StockSrv"><rect fill="#F1F1F1" height="49.0679" rx="2.5" ry="2.5" style="stroke:#181818;stroke-width:0.5;" width="127" x="390.5" y="356.6699"/><rect fill="#F1F1F1" height="10" style="stroke:#181818;stroke-width:0.5;" width="15" x="497.5" y="361.6699"/><rect fill="#F1F1F1" height="2" style="stroke:#181818;stroke-width:0.5;" width="4" x="495.5" y="363.6699"/><rect fill="#F1F1F1" height="2" style="stroke:#181818;stroke-width:0.5;" width="4" x="495.5" y="367.6699"/><text fill="#000000" font-family="sans-serif" font-size="14" lengthAdjust="spacing" textLength="87" x="405.5" y="391.6358">Stock Service</text></g><!--entity Engine--><g id="elem_Engine"><rect fill="#F1F1F1" height="49.0679" rx="2.5" ry="2.5" style="stroke:#181818;stroke-width:0.5;" width="155" x="211.5" y="510.6699"/><rect fill="#F1F1F1" height="10" style="stroke:#181818;stroke-width:0.5;" width="15" x="346.5" y="515.6699"/><rect fill="#F1F1F1" height="2" style="stroke:#181818;stroke-width:0.5;" width="4" x="344.5" y="517.6699"/><rect fill="#F1F1F1" height="2" style="stroke:#181818;stroke-width:0.5;" width="4" x="344.5" y="521.6699"/><text fill="#000000" font-family="sans-serif" font-size="14" lengthAdjust="spacing" textLength="115" x="226.5" y="545.6358">Matching Engine</text></g><!--entity Broker--><g id="elem_Broker"><rect fill="#F1F1F1" height="49.0679" rx="2.5" ry="2.5" style="stroke:#181818;stroke-width:0.5;" width="270" x="154" y="638.6699"/><rect fill="#F1F1F1" height="10" style="stroke:#181818;stroke-width:0.5;" width="15" x="404" y="643.6699"/><rect fill="#F1F1F1" height="2" style="stroke:#181818;stroke-width:0.5;" width="4" x="402" y="645.6699"/><rect fill="#F1F1F1" height="2" style="stroke:#181818;stroke-width:0.5;" width="4" x="402" y="649.6699"/><text fill="#000000" font-family="sans-serif" font-size="14" lengthAdjust="spacing" textLength="230" x="169" y="673.6358">Message Broker (RabbitMQ/Kafka)</text></g><!--entity BC--><g id="elem_BC"><rect fill="#F1F1F1" height="49.0679" rx="2.5" ry="2.5" style="stroke:#181818;stroke-width:0.5;" width="162" x="208" y="766.6699"/><rect fill="#F1F1F1" height="10" style="stroke:#181818;stroke-width:0.5;" width="15" x="350" y="771.6699"/><rect fill="#F1F1F1" height="2" style="stroke:#181818;stroke-width:0.5;" width="4" x="348" y="773.6699"/><rect fill="#F1F1F1" height="2" style="stroke:#181818;stroke-width:0.5;" width="4" x="348" y="777.6699"/><text fill="#000000" font-family="sans-serif" font-size="14" lengthAdjust="spacing" textLength="122" x="223" y="801.6358">Private Blockchain</text></g><!--link UI to Gateway--><g id="link_UI_Gateway"><path d="M289,133.8199 C289,158.1599 289,189.8899 289,214.3099 " fill="none" id="UI-to-Gateway" style="stroke:#181818;stroke-width:1.0;"/><polygon fill="#181818" points="289,220.3099,293,211.3099,289,215.3099,285,211.3099,289,220.3099" style="stroke:#181818;stroke-width:1.0;"/></g><!--link Gateway to UserSrv--><g id="link_Gateway_UserSrv"><path d="M256.53,269.8199 C223,294.2399 175.8302,328.5879 142.3102,352.9979 " fill="none" id="Gateway-to-UserSrv" style="stroke:#181818;stroke-width:1.0;"/><polygon fill="#181818" points="137.46,356.5299,147.09,354.4653,141.5019,353.5865,142.3806,347.9984,137.46,356.5299" style="stroke:#181818;stroke-width:1.0;"/></g><!--link Gateway to OrderSrv--><g id="link_Gateway_OrderSrv"><path d="M289,269.8199 C289,294.1599 289,325.8899 289,350.3099 " fill="none" id="Gateway-to-OrderSrv" style="stroke:#181818;stroke-width:1.0;"/><polygon fill="#181818" points="289,356.3099,293,347.3099,289,351.3099,285,347.3099,289,356.3099" style="stroke:#181818;stroke-width:1.0;"/></g><!--link Gateway to StockSrv--><g id="link_Gateway_StockSrv"><path d="M320.83,269.9699 C336.67,281.9699 356.01,296.8799 373,310.6699 C391.41,325.6199 407.1354,339.0593 422.7854,352.6893 " fill="none" id="Gateway-to-StockSrv" style="stroke:#181818;stroke-width:1.0;"/><polygon fill="#181818" points="427.31,356.6299,423.1502,347.7026,423.5395,353.3461,417.8961,353.7354,427.31,356.6299" style="stroke:#181818;stroke-width:1.0;"/></g><!--link OrderSrv to Engine--><g id="link_OrderSrv_Engine"><path d="M289,405.9199 C289,434.4799 289,476.1099 289,504.5899 " fill="none" id="OrderSrv-to-Engine" style="stroke:#181818;stroke-width:1.0;"/><polygon fill="#181818" points="289,510.5899,293,501.5899,289,505.5899,285,501.5899,289,510.5899" style="stroke:#181818;stroke-width:1.0;"/><text fill="#000000" font-family="sans-serif" font-size="13" lengthAdjust="spacing" textLength="81" x="290" y="452.5669">Submit Order</text></g><!--link Engine to Broker--><g id="link_Engine_Broker"><path d="M289,559.8699 C289,582.3999 289,610.0899 289,632.5799 " fill="none" id="Engine-to-Broker" style="stroke:#181818;stroke-width:1.0;"/><polygon fill="#181818" points="289,638.5799,293,629.5799,289,633.5799,285,629.5799,289,638.5799" style="stroke:#181818;stroke-width:1.0;"/><text fill="#000000" font-family="sans-serif" font-size="13" lengthAdjust="spacing" textLength="75" x="290" y="604.5669">Match Event</text></g><!--link Broker to BC--><g id="link_Broker_BC"><path d="M289,687.8699 C289,710.3999 289,738.0899 289,760.5799 " fill="none" id="Broker-to-BC" style="stroke:#181818;stroke-width:1.0;"/><polygon fill="#181818" points="289,766.5799,293,757.5799,289,761.5799,285,757.5799,289,766.5799" style="stroke:#181818;stroke-width:1.0;"/><text fill="#000000" font-family="sans-serif" font-size="13" lengthAdjust="spacing" textLength="115" x="290" y="732.5669">Record Transaction</text></g><!--SRC=[NL0zRy8m4DtzAqvCxO3O6Ie1ebNKHgMag4FLuU8SO0LiT3vIeQh_lOuTej1Crll8lVV4o85WpgucnXr1SV52HnX3RZGxJzmOJHvchFT6ICkPIQaJwheLZnxPMI5RmGjUY4Vmeo1ydnzKJd9Ncl3dsUdq1UXXawdVWN6sok09XRxnyiyxOAAnUz-u5uv3qYvRxzo4j92Z3P8ZMKbd0rPmamIlN0L5vujqH7g-4AVh6puYBJ-ydjajenS-npNwypbAsCZkO6btnYP_UdOyUT_wqzPmjyQoD9A_JPvnM-Dzr2SkwLTicj0TveUGGU_Hs2HPj64s6Op73_qurobRx5fvYFKzXs1VJbtf2AVCC8NYN1wD9A_gq5RG5PX2R0pB9eojEZ3oYy2jIJkku9tHUjHYdFq3]--></g></svg>