<?xml version="1.0" encoding="us-ascii" standalone="no"?><svg xmlns="http://www.w3.org/2000/svg" xmlns:xlink="http://www.w3.org/1999/xlink" contentStyleType="text/css" height="693px" preserveAspectRatio="none" style="width:443px;height:693px;background:#FFFFFF;" version="1.1" viewBox="0 0 443 693" width="443px" zoomAndPan="magnify"><defs/><g><text fill="#000000" font-family="sans-serif" font-size="14" font-weight="bold" lengthAdjust="spacing" textLength="238" x="95.75" y="24.9659">Brokerage System - Class Diagram</text><!--class User--><g id="elem_User"><rect codeLine="3" fill="#F1F1F1" height="105.2038" id="User" rx="2.5" ry="2.5" style="stroke:#181818;stroke-width:0.5;" width="143" x="173" y="47.0679"/><ellipse cx="224.75" cy="63.0679" fill="#ADD1B2" rx="11" ry="11" style="stroke:#181818;stroke-width:1.0;"/><path d="M227.7188,68.7085 Q227.1406,69.0054 226.5,69.146 Q225.8594,69.3023 225.1563,69.3023 Q222.6563,69.3023 221.3281,67.6617 Q220.0156,66.0054 220.0156,62.8804 Q220.0156,59.7554 221.3281,58.0992 Q222.6563,56.4429 225.1563,56.4429 Q225.8594,56.4429 226.5,56.5992 Q227.1563,56.7554 227.7188,57.0523 L227.7188,59.771 Q227.0938,59.1929 226.5,58.9273 Q225.9063,58.646 225.2813,58.646 Q223.9375,58.646 223.25,59.7242 Q222.5625,60.7867 222.5625,62.8804 Q222.5625,64.9742 223.25,66.0523 Q223.9375,67.1148 225.2813,67.1148 Q225.9063,67.1148 226.5,66.8492 Q227.0938,66.5679 227.7188,65.9898 L227.7188,68.7085 Z " fill="#000000"/><text fill="#000000" font-family="sans-serif" font-size="14" lengthAdjust="spacing" textLength="31" x="245.25" y="68.4999">User</text><line style="stroke:#181818;stroke-width:0.5;" x1="174" x2="315" y1="79.0679" y2="79.0679"/><ellipse cx="184" cy="94.1019" fill="none" rx="3" ry="3" style="stroke:#038048;stroke-width:1.0;"/><text fill="#000000" font-family="sans-serif" font-size="14" lengthAdjust="spacing" textLength="66" x="193" y="98.0339">int userId</text><ellipse cx="184" cy="113.1698" fill="none" rx="3" ry="3" style="stroke:#038048;stroke-width:1.0;"/><text fill="#000000" font-family="sans-serif" font-size="14" lengthAdjust="spacing" textLength="82" x="193" y="117.1018">string name</text><ellipse cx="184" cy="132.2377" fill="none" rx="3" ry="3" style="stroke:#038048;stroke-width:1.0;"/><text fill="#000000" font-family="sans-serif" font-size="14" lengthAdjust="spacing" textLength="117" x="193" y="136.1697">Portfolio portfolio</text><line style="stroke:#181818;stroke-width:0.5;" x1="174" x2="315" y1="144.2717" y2="144.2717"/></g><!--class Stock--><g id="elem_Stock"><rect codeLine="9" fill="#F1F1F1" height="105.2038" id="Stock" rx="2.5" ry="2.5" style="stroke:#181818;stroke-width:0.5;" width="160" x="276.5" y="416.0679"/><ellipse cx="334.75" cy="432.0679" fill="#ADD1B2" rx="11" ry="11" style="stroke:#181818;stroke-width:1.0;"/><path d="M337.7188,437.7085 Q337.1406,438.0054 336.5,438.146 Q335.8594,438.3023 335.1563,438.3023 Q332.6563,438.3023 331.3281,436.6617 Q330.0156,435.0054 330.0156,431.8804 Q330.0156,428.7554 331.3281,427.0992 Q332.6563,425.4429 335.1563,425.4429 Q335.8594,425.4429 336.5,425.5992 Q337.1563,425.7554 337.7188,426.0523 L337.7188,428.771 Q337.0938,428.1929 336.5,427.9273 Q335.9063,427.646 335.2813,427.646 Q333.9375,427.646 333.25,428.7242 Q332.5625,429.7867 332.5625,431.8804 Q332.5625,433.9742 333.25,435.0523 Q333.9375,436.1148 335.2813,436.1148 Q335.9063,436.1148 336.5,435.8492 Q337.0938,435.5679 337.7188,434.9898 L337.7188,437.7085 Z " fill="#000000"/><text fill="#000000" font-family="sans-serif" font-size="14" lengthAdjust="spacing" textLength="35" x="355.25" y="437.4999">Stock</text><line style="stroke:#181818;stroke-width:0.5;" x1="277.5" x2="435.5" y1="448.0679" y2="448.0679"/><ellipse cx="287.5" cy="463.1019" fill="none" rx="3" ry="3" style="stroke:#038048;stroke-width:1.0;"/><text fill="#000000" font-family="sans-serif" font-size="14" lengthAdjust="spacing" textLength="92" x="296.5" y="467.0339">string symbol</text><ellipse cx="287.5" cy="482.1698" fill="none" rx="3" ry="3" style="stroke:#038048;stroke-width:1.0;"/><text fill="#000000" font-family="sans-serif" font-size="14" lengthAdjust="spacing" textLength="134" x="296.5" y="486.1018">double currentPrice</text><ellipse cx="287.5" cy="501.2377" fill="none" rx="3" ry="3" style="stroke:#038048;stroke-width:1.0;"/><text fill="#000000" font-family="sans-serif" font-size="14" lengthAdjust="spacing" textLength="83" x="296.5" y="505.1697">long volume</text><line style="stroke:#181818;stroke-width:0.5;" x1="277.5" x2="435.5" y1="513.2717" y2="513.2717"/></g><!--class Order--><g id="elem_Order"><rect codeLine="15" fill="#F1F1F1" height="124.2717" id="Order" rx="2.5" ry="2.5" style="stroke:#181818;stroke-width:0.5;" width="166" x="81.5" y="213.0679"/><ellipse cx="140.25" cy="229.0679" fill="#ADD1B2" rx="11" ry="11" style="stroke:#181818;stroke-width:1.0;"/><path d="M143.2188,234.7085 Q142.6406,235.0054 142,235.146 Q141.3594,235.3023 140.6563,235.3023 Q138.1563,235.3023 136.8281,233.6617 Q135.5156,232.0054 135.5156,228.8804 Q135.5156,225.7554 136.8281,224.0992 Q138.1563,222.4429 140.6563,222.4429 Q141.3594,222.4429 142,222.5992 Q142.6563,222.7554 143.2188,223.0523 L143.2188,225.771 Q142.5938,225.1929 142,224.9273 Q141.4063,224.646 140.7813,224.646 Q139.4375,224.646 138.75,225.7242 Q138.0625,226.7867 138.0625,228.8804 Q138.0625,230.9742 138.75,232.0523 Q139.4375,233.1148 140.7813,233.1148 Q141.4063,233.1148 142,232.8492 Q142.5938,232.5679 143.2188,231.9898 L143.2188,234.7085 Z " fill="#000000"/><text fill="#000000" font-family="sans-serif" font-size="14" lengthAdjust="spacing" textLength="40" x="160.75" y="234.4999">Order</text><line style="stroke:#181818;stroke-width:0.5;" x1="82.5" x2="246.5" y1="245.0679" y2="245.0679"/><ellipse cx="92.5" cy="260.1019" fill="none" rx="3" ry="3" style="stroke:#038048;stroke-width:1.0;"/><text fill="#000000" font-family="sans-serif" font-size="14" lengthAdjust="spacing" textLength="73" x="101.5" y="264.0339">int orderId</text><ellipse cx="92.5" cy="279.1698" fill="none" rx="3" ry="3" style="stroke:#038048;stroke-width:1.0;"/><text fill="#000000" font-family="sans-serif" font-size="14" lengthAdjust="spacing" textLength="140" x="101.5" y="283.1018">DateTime timestamp</text><ellipse cx="92.5" cy="298.2377" fill="none" rx="3" ry="3" style="stroke:#038048;stroke-width:1.0;"/><text fill="#000000" font-family="sans-serif" font-size="14" lengthAdjust="spacing" textLength="85" x="101.5" y="302.1697">double price</text><ellipse cx="92.5" cy="317.3056" fill="none" rx="3" ry="3" style="stroke:#038048;stroke-width:1.0;"/><text fill="#000000" font-family="sans-serif" font-size="14" lengthAdjust="spacing" textLength="105" x="101.5" y="321.2376">OrderType type</text><line style="stroke:#181818;stroke-width:0.5;" x1="82.5" x2="246.5" y1="329.3396" y2="329.3396"/></g><!--class Transaction--><g id="elem_Transaction"><rect codeLine="22" fill="#F1F1F1" height="105.2038" id="Transaction" rx="2.5" ry="2.5" style="stroke:#181818;stroke-width:0.5;" width="192" x="49.5" y="416.0679"/><ellipse cx="101.75" cy="432.0679" fill="#ADD1B2" rx="11" ry="11" style="stroke:#181818;stroke-width:1.0;"/><path d="M104.7188,437.7085 Q104.1406,438.0054 103.5,438.146 Q102.8594,438.3023 102.1563,438.3023 Q99.6563,438.3023 98.3281,436.6617 Q97.0156,435.0054 97.0156,431.8804 Q97.0156,428.7554 98.3281,427.0992 Q99.6563,425.4429 102.1563,425.4429 Q102.8594,425.4429 103.5,425.5992 Q104.1563,425.7554 104.7188,426.0523 L104.7188,428.771 Q104.0938,428.1929 103.5,427.9273 Q102.9063,427.646 102.2813,427.646 Q100.9375,427.646 100.25,428.7242 Q99.5625,429.7867 99.5625,431.8804 Q99.5625,433.9742 100.25,435.0523 Q100.9375,436.1148 102.2813,436.1148 Q102.9063,436.1148 103.5,435.8492 Q104.0938,435.5679 104.7188,434.9898 L104.7188,437.7085 Z " fill="#000000"/><text fill="#000000" font-family="sans-serif" font-size="14" lengthAdjust="spacing" textLength="79" x="122.25" y="437.4999">Transaction</text><line style="stroke:#181818;stroke-width:0.5;" x1="50.5" x2="240.5" y1="448.0679" y2="448.0679"/><ellipse cx="60.5" cy="463.1019" fill="none" rx="3" ry="3" style="stroke:#038048;stroke-width:1.0;"/><text fill="#000000" font-family="sans-serif" font-size="14" lengthAdjust="spacing" textLength="112" x="69.5" y="467.0339">int transactionId</text><ellipse cx="60.5" cy="482.1698" fill="none" rx="3" ry="3" style="stroke:#038048;stroke-width:1.0;"/><text fill="#000000" font-family="sans-serif" font-size="14" lengthAdjust="spacing" textLength="114" x="69.5" y="486.1018">double finalPrice</text><ellipse cx="60.5" cy="501.2377" fill="none" rx="3" ry="3" style="stroke:#038048;stroke-width:1.0;"/><text fill="#000000" font-family="sans-serif" font-size="14" lengthAdjust="spacing" textLength="166" x="69.5" y="505.1697">DateTime executionTime</text><line style="stroke:#181818;stroke-width:0.5;" x1="50.5" x2="240.5" y1="513.2717" y2="513.2717"/></g><!--class BlockchainLedger--><g id="elem_BlockchainLedger"><rect codeLine="28" fill="#F1F1F1" height="86.1358" id="BlockchainLedger" rx="2.5" ry="2.5" style="stroke:#181818;stroke-width:0.5;" width="277" x="7" y="600.0679"/><ellipse cx="81.75" cy="616.0679" fill="#ADD1B2" rx="11" ry="11" style="stroke:#181818;stroke-width:1.0;"/><path d="M84.7188,621.7085 Q84.1406,622.0054 83.5,622.146 Q82.8594,622.3023 82.1563,622.3023 Q79.6563,622.3023 78.3281,620.6617 Q77.0156,619.0054 77.0156,615.8804 Q77.0156,612.7554 78.3281,611.0992 Q79.6563,609.4429 82.1563,609.4429 Q82.8594,609.4429 83.5,609.5992 Q84.1563,609.7554 84.7188,610.0523 L84.7188,612.771 Q84.0938,612.1929 83.5,611.9273 Q82.9063,611.646 82.2813,611.646 Q80.9375,611.646 80.25,612.7242 Q79.5625,613.7867 79.5625,615.8804 Q79.5625,617.9742 80.25,619.0523 Q80.9375,620.1148 82.2813,620.1148 Q82.9063,620.1148 83.5,619.8492 Q84.0938,619.5679 84.7188,618.9898 L84.7188,621.7085 Z " fill="#000000"/><text fill="#000000" font-family="sans-serif" font-size="14" lengthAdjust="spacing" textLength="119" x="102.25" y="621.4999">BlockchainLedger</text><line style="stroke:#181818;stroke-width:0.5;" x1="8" x2="283" y1="632.0679" y2="632.0679"/><line style="stroke:#181818;stroke-width:0.5;" x1="8" x2="283" y1="640.0679" y2="640.0679"/><ellipse cx="18" cy="655.1019" fill="#84BE84" rx="3" ry="3" style="stroke:#038048;stroke-width:1.0;"/><text fill="#000000" font-family="sans-serif" font-size="14" lengthAdjust="spacing" textLength="251" x="27" y="659.0339">void recordTransaction(Transaction t)</text><ellipse cx="18" cy="674.1698" fill="#84BE84" rx="3" ry="3" style="stroke:#038048;stroke-width:1.0;"/><text fill="#000000" font-family="sans-serif" font-size="14" lengthAdjust="spacing" textLength="108" x="27" y="678.1018">string getHash()</text></g><!--class Portfolio--><g id="elem_Portfolio"><rect fill="#F1F1F1" height="48" id="Portfolio" rx="2.5" ry="2.5" style="stroke:#181818;stroke-width:0.5;" width="88" x="306.5" y="251.0679"/><ellipse cx="321.5" cy="267.0679" fill="#ADD1B2" rx="11" ry="11" style="stroke:#181818;stroke-width:1.0;"/><path d="M324.4688,272.7085 Q323.8906,273.0054 323.25,273.146 Q322.6094,273.3023 321.9063,273.3023 Q319.4063,273.3023 318.0781,271.6617 Q316.7656,270.0054 316.7656,266.8804 Q316.7656,263.7554 318.0781,262.0992 Q319.4063,260.4429 321.9063,260.4429 Q322.6094,260.4429 323.25,260.5992 Q323.9063,260.7554 324.4688,261.0523 L324.4688,263.771 Q323.8438,263.1929 323.25,262.9273 Q322.6563,262.646 322.0313,262.646 Q320.6875,262.646 320,263.7242 Q319.3125,264.7867 319.3125,266.8804 Q319.3125,268.9742 320,270.0523 Q320.6875,271.1148 322.0313,271.1148 Q322.6563,271.1148 323.25,270.8492 Q323.8438,270.5679 324.4688,269.9898 L324.4688,272.7085 Z " fill="#000000"/><text fill="#000000" font-family="sans-serif" font-size="14" lengthAdjust="spacing" textLength="56" x="335.5" y="272.4999">Portfolio</text><line style="stroke:#181818;stroke-width:0.5;" x1="307.5" x2="393.5" y1="283.0679" y2="283.0679"/><line style="stroke:#181818;stroke-width:0.5;" x1="307.5" x2="393.5" y1="291.0679" y2="291.0679"/></g><!--link User to Portfolio--><g id="link_User_Portfolio"><path codeLine="33" d="M276.02,152.1579 C296.03,184.9179 320.97,225.7379 336.31,250.8479 " fill="none" id="User-Portfolio" style="stroke:#181818;stroke-width:1.0;"/><text fill="#000000" font-family="sans-serif" font-size="13" lengthAdjust="spacing" textLength="7" x="272.7852" y="174.2976">1</text><text fill="#000000" font-family="sans-serif" font-size="13" lengthAdjust="spacing" textLength="7" x="324.7769" y="239.4509">1</text></g><!--reverse link Portfolio to Stock--><g id="link_Portfolio_Stock"><path codeLine="34" d="M351.5955,311.162 C352.4955,339.912 353.69,377.8679 354.88,415.9179 " fill="none" id="Portfolio-backto-Stock" style="stroke:#181818;stroke-width:1.0;"/><polygon fill="none" points="351.22,299.1679,347.4097,305.2901,351.5955,311.162,355.4058,305.0398,351.22,299.1679" style="stroke:#181818;stroke-width:1.0;"/><text fill="#000000" font-family="sans-serif" font-size="13" lengthAdjust="spacing" textLength="7" x="343.5424" y="321.0972">1</text><text fill="#000000" font-family="sans-serif" font-size="13" lengthAdjust="spacing" textLength="7" x="347.16" y="404.251">*</text></g><!--link User to Order--><g id="link_User_Order"><path codeLine="35" d="M220.71,152.1579 C211.92,171.2279 201.86,193.0379 192.71,212.8879 " fill="none" id="User-Order" style="stroke:#181818;stroke-width:1.0;"/><text fill="#000000" font-family="sans-serif" font-size="13" lengthAdjust="spacing" textLength="7" x="210.0429" y="174.2976">1</text><text fill="#000000" font-family="sans-serif" font-size="13" lengthAdjust="spacing" textLength="7" x="188.7215" y="201.1973">*</text></g><!--link Order to Transaction--><g id="link_Order_Transaction"><path codeLine="36" d="M158.44,337.1879 C155.92,362.5779 153.02,391.7279 150.61,416.0179 " fill="none" id="Order-Transaction" style="stroke:#181818;stroke-width:1.0;"/><text fill="#000000" font-family="sans-serif" font-size="13" lengthAdjust="spacing" textLength="51" x="156.5" y="381.9649">matches</text><text fill="#000000" font-family="sans-serif" font-size="13" lengthAdjust="spacing" textLength="7" x="150.3346" y="359.2755">2</text><text fill="#000000" font-family="sans-serif" font-size="13" lengthAdjust="spacing" textLength="7" x="143.8364" y="404.3651">1</text></g><!--link Transaction to BlockchainLedger--><g id="link_Transaction_BlockchainLedger"><path codeLine="37" d="M145.5,521.3279 C145.5,546.4279 145.5,576.2079 145.5,599.9079 " fill="none" id="Transaction-BlockchainLedger" style="stroke:#181818;stroke-width:1.0;"/><text fill="#000000" font-family="sans-serif" font-size="13" lengthAdjust="spacing" textLength="53" x="146.5" y="565.9649">stored in</text><text fill="#000000" font-family="sans-serif" font-size="13" lengthAdjust="spacing" textLength="7" x="138.0516" y="543.106">*</text><text fill="#000000" font-family="sans-serif" font-size="13" lengthAdjust="spacing" textLength="7" x="137.9203" y="588.296">1</text></g><!--SRC=[PL5DJyCm3BtdLrWzRQ0TuBZZu00I4fCsVe2NUbsq9AuITs92_7UIVbVqaCOlzdlFjXYn1Bl0LmfO4HpkKSZ11buinWYl1gk0JYdTXb-H0lmeID-ZyG9DYj_BBeuIZA_0ewCEs7EGCrl3K0ytzJim7OJrTQ3gI-FTdTXsKCdDAHdJJGZaPH-CxbajfymRsoR9Z6oVeLmQummCpbvHw6WSWQGZ2hfweL5Fv2tFyLwdr7GaVkW5ZW5zH2s6_Ln69dWGwqdFngETsHuzq3Vf9XVaQEfWPzCyz0MD_w2ocfgviIaXa4uDpJoivdvalPXYHVA6yR9QP_9sOSLJ0PjD-njtegRjP9pp-qFHhMLPbT1sBAeRSl4yairDRC6Xw0j5DKTpSP_yhy4jHE509HYl_W00]--></g></svg>