<?xml version="1.0" encoding="us-ascii" standalone="no"?><svg xmlns="http://www.w3.org/2000/svg" xmlns:xlink="http://www.w3.org/1999/xlink" contentStyleType="text/css" height="538px" preserveAspectRatio="none" style="width:816px;height:538px;background:#FFFFFF;" version="1.1" viewBox="0 0 816 538" width="816px" zoomAndPan="magnify"><defs/><g><text fill="#000000" font-family="sans-serif" font-size="14" font-weight="bold" lengthAdjust="spacing" textLength="265" x="268.5" y="24.9659">Brokerage System - Use Case Diagram</text><!--cluster ?????? ???????? ???? ??????--><g id="cluster_&#1587;&#1575;&#1605;&#1575;&#1606;&#1607; &#1705;&#1575;&#1585;&#1711;&#1586;&#1575;&#1585;&#1740; &#1576;&#1608;&#1585;&#1587; &#1570;&#1606;&#1604;&#1575;&#1740;&#1606;"><rect fill="none" height="484" rx="2.5" ry="2.5" style="stroke:#181818;stroke-width:1.0;" width="538" x="137" y="47.0679"/><text fill="#000000" font-family="sans-serif" font-size="14" font-weight="bold" lengthAdjust="spacing" textLength="173" x="319.5" y="64.0339">&#1587;&#1575;&#1605;&#1575;&#1606;&#1607; &#1705;&#1575;&#1585;&#1711;&#1586;&#1575;&#1585;&#1740; &#1576;&#1608;&#1585;&#1587; &#1570;&#1606;&#1604;&#1575;&#1740;&#1606;</text></g><g id="elem_UC1"><ellipse cx="259.9886" cy="109.0656" fill="#F1F1F1" rx="105.4886" ry="23.4977" style="stroke:#181818;stroke-width:0.5;"/><text fill="#000000" font-family="sans-serif" font-size="14" lengthAdjust="spacing" textLength="168" x="172.9886" y="113.7986">&#1608;&#1585;&#1608;&#1583; &#1576;&#1607; &#1587;&#1575;&#1605;&#1575;&#1606;&#1607; (Login/SIWE)</text></g><g id="elem_UC2"><ellipse cx="260.2471" cy="185.2173" fill="#F1F1F1" rx="73.7471" ry="17.1494" style="stroke:#181818;stroke-width:0.5;"/><text fill="#000000" font-family="sans-serif" font-size="14" lengthAdjust="spacing" textLength="85" x="214.7471" y="189.9503">&#1580;&#1587;&#1578;&#1580;&#1608;&#1740; &#1587;&#1607;&#1575;&#1605;</text></g><g id="elem_UC3"><ellipse cx="259.808" cy="258.8295" fill="#F1F1F1" rx="94.308" ry="21.2616" style="stroke:#181818;stroke-width:0.5;"/><text fill="#000000" font-family="sans-serif" font-size="14" lengthAdjust="spacing" textLength="141" x="186.308" y="263.5625">&#1579;&#1576;&#1578; &#1587;&#1601;&#1575;&#1585;&#1588; &#1582;&#1585;&#1740;&#1583;/&#1601;&#1585;&#1608;&#1588;</text></g><g id="elem_UC4"><ellipse cx="260.1917" cy="339.9063" fill="#F1F1F1" rx="107.1917" ry="23.8383" style="stroke:#181818;stroke-width:0.5;"/><text fill="#000000" font-family="sans-serif" font-size="14" lengthAdjust="spacing" textLength="172" x="171.1917" y="344.6392">&#1605;&#1588;&#1575;&#1607;&#1583;&#1607; &#1587;&#1576;&#1583; &#1587;&#1607;&#1575;&#1605; (Portfolio)</text></g><g id="elem_UC5"><ellipse cx="259.9695" cy="419.2618" fill="#F1F1F1" rx="86.4695" ry="19.6939" style="stroke:#181818;stroke-width:0.5;"/><text fill="#000000" font-family="sans-serif" font-size="14" lengthAdjust="spacing" textLength="121" x="196.4695" y="423.9948">&#1583;&#1585;&#1740;&#1575;&#1601;&#1578; &#1575;&#1593;&#1604;&#1575;&#1606; &#1604;&#1581;&#1592;&#1607;&#8204;&#1575;&#1740;</text></g><g id="elem_UC6"><ellipse cx="260.015" cy="494.2709" fill="#F1F1F1" rx="91.515" ry="20.703" style="stroke:#181818;stroke-width:0.5;"/><text fill="#000000" font-family="sans-serif" font-size="14" lengthAdjust="spacing" textLength="134" x="190.015" y="499.0039">&#1605;&#1583;&#1740;&#1585;&#1740;&#1578; &#1705;&#1575;&#1585;&#1576;&#1585;&#1575;&#1606; &#1608; &#1606;&#1605;&#1575;&#1583;&#1607;&#1575;</text></g><g id="elem_UC7"><ellipse cx="572.4695" cy="259.2618" fill="#F1F1F1" rx="86.4695" ry="19.6939" style="stroke:#181818;stroke-width:0.5;"/><text fill="#000000" font-family="sans-serif" font-size="14" lengthAdjust="spacing" textLength="121" x="508.9695" y="263.9948">&#1579;&#1576;&#1578; &#1606;&#1607;&#1575;&#1740;&#1740; &#1583;&#1585; &#1583;&#1601;&#1578;&#1585; &#1705;&#1604;</text></g><!--entity User--><g id="elem_User"><ellipse cx="48" cy="228.0679" fill="#F1F1F1" rx="8" ry="8" style="stroke:#181818;stroke-width:0.5;"/><path d="M48,236.0679 L48,263.0679 M35,244.0679 L61,244.0679 M48,263.0679 L35,278.0679 M48,263.0679 L61,278.0679 " fill="none" style="stroke:#181818;stroke-width:0.5;"/><text fill="#000000" font-family="sans-serif" font-size="14" lengthAdjust="spacing" textLength="84" x="6" y="294.5339">&#1605;&#1588;&#1578;&#1585;&#1740; (User)</text></g><!--entity Blockchain--><g id="elem_Blockchain"><ellipse cx="765.5" cy="237.6358" fill="#F1F1F1" rx="8" ry="8" style="stroke:#181818;stroke-width:0.5;"/><path d="M765.5,245.6358 L765.5,272.6358 M752.5,253.6358 L778.5,253.6358 M765.5,272.6358 L752.5,287.6358 M765.5,272.6358 L778.5,287.6358 " fill="none" style="stroke:#181818;stroke-width:0.5;"/><text fill="#000000" font-family="sans-serif" font-size="14" lengthAdjust="spacing" textLength="87" x="722" y="304.1018">&#1587;&#1740;&#1587;&#1578;&#1605; &#1576;&#1604;&#1575;&#1705;&#1670;&#1740;&#1606;</text><text fill="#000000" font-family="sans-serif" font-size="14" font-style="italic" lengthAdjust="spacing" textLength="58" x="736.5" y="225.0339">&#171;System&#187;</text></g><!--entity Admin--><g id="elem_Admin"><ellipse cx="48" cy="463.0679" fill="#F1F1F1" rx="8" ry="8" style="stroke:#181818;stroke-width:0.5;"/><path d="M48,471.0679 L48,498.0679 M35,479.0679 L61,479.0679 M48,498.0679 L35,513.0679 M48,498.0679 L61,513.0679 " fill="none" style="stroke:#181818;stroke-width:0.5;"/><text fill="#000000" font-family="sans-serif" font-size="14" lengthAdjust="spacing" textLength="69" x="13.5" y="529.5339">&#1605;&#1583;&#1740;&#1585; &#1587;&#1740;&#1587;&#1578;&#1605;</text></g><!--link User to UC1--><g id="link_User_UC1"><path d="M69.55,219.5579 C83.48,196.3079 103.91,168.0379 129,150.0679 C144.49,138.9779 157.3898,132.6809 175.6198,126.6909 " fill="none" id="User-to-UC1" style="stroke:#181818;stroke-width:1.0;"/><polygon fill="#181818" points="181.32,124.8179,171.5211,123.8272,176.5699,126.3787,174.0184,131.4275,181.32,124.8179" style="stroke:#181818;stroke-width:1.0;"/></g><!--link User to UC2--><g id="link_User_UC2"><path d="M90.27,237.0879 C102.53,231.0779 116.12,224.8879 129,220.0679 C153.95,210.7279 176.6376,204.2068 200.5876,198.2468 " fill="none" id="User-to-UC2" style="stroke:#181818;stroke-width:1.0;"/><polygon fill="#181818" points="206.41,196.7979,196.7104,195.0897,201.558,198.0054,198.6423,202.8529,206.41,196.7979" style="stroke:#181818;stroke-width:1.0;"/></g><!--link User to UC3--><g id="link_User_UC3"><path d="M90.24,259.0679 C111.74,259.0679 132.98,259.0679 159.27,259.0679 " fill="none" id="User-to-UC3" style="stroke:#181818;stroke-width:1.0;"/><polygon fill="#181818" points="165.27,259.0679,156.27,255.0679,160.27,259.0679,156.27,263.0679,165.27,259.0679" style="stroke:#181818;stroke-width:1.0;"/></g><!--link User to UC4--><g id="link_User_UC4"><path d="M90.02,280.4379 C102.38,286.5079 116.1,292.8679 129,298.0679 C149.9,306.4879 167.4708,312.634 188.5008,319.304 " fill="none" id="User-to-UC4" style="stroke:#181818;stroke-width:1.0;"/><polygon fill="#181818" points="194.22,321.1179,186.8505,314.5842,189.454,319.6063,184.4319,322.2098,194.22,321.1179" style="stroke:#181818;stroke-width:1.0;"/></g><!--link User to UC5--><g id="link_User_UC5"><path d="M65.98,298.8079 C79.4,325.7079 100.6,360.0379 129,381.0679 C146.29,393.8679 162.0442,400.7892 182.5842,406.4292 " fill="none" id="User-to-UC5" style="stroke:#181818;stroke-width:1.0;"/><polygon fill="#181818" points="188.37,408.0179,180.7504,401.7776,183.5485,406.694,178.6321,409.4921,188.37,408.0179" style="stroke:#181818;stroke-width:1.0;"/></g><!--link UC3 to UC7--><g id="link_UC3_UC7"><path d="M354.58,259.0679 C396.28,259.0679 439.06,259.0679 479.79,259.0679 " fill="none" id="UC3-to-UC7" style="stroke:#181818;stroke-width:1.0;stroke-dasharray:7.0,7.0;"/><polygon fill="#181818" points="485.79,259.0679,476.79,255.0679,480.79,259.0679,476.79,263.0679,485.79,259.0679" style="stroke:#181818;stroke-width:1.0;"/><text fill="#000000" font-family="sans-serif" font-size="13" lengthAdjust="spacing" textLength="57" x="398" y="254.9649">&#171;include&#187;</text></g><!--link UC7 to Blockchain--><g id="link_UC7_Blockchain"><path d="M659.22,259.0679 C680.94,259.0679 703.34,259.0679 721.87,259.0679 " fill="none" id="UC7-Blockchain" style="stroke:#181818;stroke-width:1.0;"/></g><!--link Admin to UC6--><g id="link_Admin_UC6"><path d="M82.74,494.0679 C105.93,494.0679 131.9,494.0679 162.25,494.0679 " fill="none" id="Admin-to-UC6" style="stroke:#181818;stroke-width:1.0;"/><polygon fill="#181818" points="168.25,494.0679,159.25,490.0679,163.25,494.0679,159.25,498.0679,168.25,494.0679" style="stroke:#181818;stroke-width:1.0;"/></g><!--SRC=[RL9DQzj04BtlhnXySWzAI9mF2C6Gk3qKUYY4ahEGDyeIMGlhpQ6KGWk9xOD_HI-o7RT2iG_9FvcLR_abcP4tH74ZMAr6l3VlxTknoYOIJes-aYQC9PnzxrlPWm2-zILqGdfzL65imfuGYRomO3KO5LzQw2eZ8wjqAaGOMMsWuMvnYJCiLcDe4jjyQ43Ovpxc1O6BrHWNE7EtW1DtWravBGUhiHjKoDD4HrVHPQXIE3vU-sYtQyrp8XVmsgCYdNHxYYombp2DwIWaWXcXCpTmGoYdc65HvdZFEpaZtH4Mk03yGm2oi9R_8O2UwxwC-CWDnj3A6Jw4DnsRNtIiqkspp-UV_04xEs_9E6T_E7SZrbku8RCzT7S3UeSJd37eD_l39U0_jedvDlrX2qjFR6qOvAmpQfsl_KtOgvU2vbTjx8LEb7vnkBSXcrSY6McGU8QF78GR06r_yS4DdtwDEHXFtlzFkhe9MZEVByaNwmOZe90eAlQ5cMzmyEwXEKrMuP1oljYSxT17ENKtddaeVWh14mH1qAwIhXMxzQ9LB_RgnJvrwBHWQukBGpYYuL9fb5nt9KqN_mc2skW9KKsKvnuy0m00]--></g></svg>