<?xml version="1.0" encoding="us-ascii" standalone="no"?><svg xmlns="http://www.w3.org/2000/svg" xmlns:xlink="http://www.w3.org/1999/xlink" contentStyleType="text/css" height="1024px" preserveAspectRatio="none" style="width:1893px;height:1024px;background:#FFFFFF;" version="1.1" viewBox="0 0 1893 1024" width="1893px" zoomAndPan="magnify"><defs/><g><text fill="#000000" font-family="sans-serif" font-size="14" font-weight="bold" lengthAdjust="spacing" textLength="379" x="750.4722" y="24.9659">Brokerage System - Deployment Diagram (K8s Cluster)</text><!--cluster UD--><g id="cluster_UD"><polygon fill="#ADD8E6" points="1624.9444,521.5041,1634.9444,511.5041,1876.9444,511.5041,1876.9444,609.5041,1866.9444,619.5041,1624.9444,619.5041,1624.9444,521.5041" style="stroke:#181818;stroke-width:1.0;"/><line style="stroke:#181818;stroke-width:1.0;" x1="1866.9444" x2="1876.9444" y1="521.5041" y2="511.5041"/><line style="stroke:#181818;stroke-width:1.0;" x1="1624.9444" x2="1866.9444" y1="521.5041" y2="521.5041"/><line style="stroke:#181818;stroke-width:1.0;" x1="1866.9444" x2="1866.9444" y1="521.5041" y2="619.5041"/><text fill="#000000" font-family="sans-serif" font-size="14" font-weight="bold" lengthAdjust="spacing" textLength="81" x="1706.4444" y="539.47">User Device</text></g><!--cluster Cloud Infrastructure / Data Center--><g id="cluster_Cloud Infrastructure / Data Center"><path d="M72.4047,122.2397 C102.0824,68.7106 138.7927,55.7581 183.4903,106.1906 C223.2325,46.0679 263.1517,55.088 303.5605,105.4663 C340.5621,54.9478 376.2925,48.9514 412.95,105.8168 C449.3956,58.8716 496.5488,61.7702 521.3473,118.0477 C543.3008,72.3646 588.8639,69.1089 620.7971,106.0332 C657.3766,59.5979 701.8629,58.3865 736.857,107.9499 C759.7161,59.5023 805.8073,55.5438 830.7836,105.938 C864.9071,47.267 915.8742,56.7231 944.7492,111.2233 C970.9923,63.2783 1017.7656,67.2056 1046.9363,107.8462 C1075.9759,50.1276 1131.6085,53.8626 1160.1529,108.3458 C1188.0039,61.26 1236.191,60.3242 1261.7566,110.7276 C1294.9221,57.9719 1348.9322,48.284 1379.7984,113.0373 C1414.8593,55.5656 1451.515,52.9688 1489.5131,110.2285 C1522.8263,55.5439 1563.1405,57.3812 1592.9444,113.5041 C1606.2576,111.3154 1615.2609,117.4339 1611.0601,132.2082 C1661.018,159.2035 1657.6726,203.461 1610.9477,230.3456 C1660.4566,263.252 1665.2388,296.7249 1614.7034,333.2814 C1652.1274,356.3563 1656.45,393.1137 1619.3879,420.2029 C1667.0815,456.9139 1666.9682,496.5938 1611.5675,525.6596 C1667.5587,557.1873 1655.0538,610.1755 1606.7373,637.1856 C1646.2469,657.7571 1658.4644,699.3815 1612.9855,725.9363 C1672.6644,757.4913 1661.3934,801.071 1614.2521,833.8793 C1649.3262,872.0104 1645.108,922.15 1585.9444,933.5041 C1588.8636,933.1543 1590.1361,934.1006 1589.3668,937.1825 C1566.9645,979.2843 1519.7335,996.9734 1490.3976,944.4331 C1459.5704,993.0229 1411.9969,992.668 1380.8614,944.7831 C1349.7324,991.1269 1310.7565,1006.7011 1272.8288,952.056 C1237.2161,992.0055 1192.8344,988.2032 1167.0062,940.2738 C1130.3574,997.9357 1092.8468,1002.0366 1047.7891,949.3594 C1019.0945,1005.6962 980.1979,999.8526 943.2408,958.1723 C914.6863,1015.6217 859.2981,1017.5493 830.7225,958.1926 C805.5721,1000.1233 762.0893,1005.5294 735.1902,960.1049 C690.6973,1015.5307 652.9784,1012.0133 620.2199,948.7392 C594.0244,996.2784 551.3698,1002.919 517.5611,957.1119 C481.6489,1011.0723 432.7198,998.6163 403.4136,949.7767 C372.0237,1001.2952 326.4738,992.0808 298.375,946.2265 C264.9014,1007.0646 221.3087,1000.9419 180.938,953.7222 C131.4239,999.2231 86.1683,991.5684 61.9444,926.5041 C68.5187,921.298 76.1141,922.2957 77.7011,931.8338 C25.0799,906.8471 23.969,868.3002 62.6439,829.8361 C16.7504,802.6148 11.355,754.4109 60.025,724.8311 C18.5722,698.0757 19.2959,665.2498 62.2145,640.6898 C19.3058,604.5718 12.485,566.5092 68.6895,536.5538 C21.2517,512.9322 8.6374,459.4507 59.6983,427.6936 C18.9656,386.0821 16.4204,351.8625 72.9633,322.5199 C21.4308,297.1164 12.246,257.0614 64.4163,222.7721 C6,180.2943 20.32,144.8131 68.9444,106.5041 C77.5513,110.274 77.8798,115.3732 72.4047,122.2397 " fill="none" style="stroke:#181818;stroke-width:1.0;"/><text fill="#000000" font-family="sans-serif" font-size="14" font-weight="bold" lengthAdjust="spacing" textLength="237" x="708.9444" y="126.47">Cloud Infrastructure / Data Center</text></g><!--cluster K8s--><g id="cluster_K8s"><polygon fill="#ADD8E6" points="77.9444,154.5041,87.9444,144.5041,752.9444,144.5041,752.9444,802.5041,742.9444,812.5041,77.9444,812.5041,77.9444,154.5041" style="stroke:#181818;stroke-width:1.0;"/><line style="stroke:#181818;stroke-width:1.0;" x1="742.9444" x2="752.9444" y1="154.5041" y2="144.5041"/><line style="stroke:#181818;stroke-width:1.0;" x1="77.9444" x2="742.9444" y1="154.5041" y2="154.5041"/><line style="stroke:#181818;stroke-width:1.0;" x1="742.9444" x2="742.9444" y1="154.5041" y2="812.5041"/><text fill="#000000" font-family="sans-serif" font-size="14" font-weight="bold" lengthAdjust="spacing" textLength="132" x="345.4444" y="172.47">Kubernetes Cluster</text></g><!--cluster Namespace: Production--><g id="cluster_Namespace: Production"><polygon fill="#ADD8E6" points="367.9444,362.5041,377.9444,352.5041,728.9444,352.5041,728.9444,778.5041,718.9444,788.5041,367.9444,788.5041,367.9444,362.5041" style="stroke:#181818;stroke-width:1.0;"/><line style="stroke:#181818;stroke-width:1.0;" x1="718.9444" x2="728.9444" y1="362.5041" y2="352.5041"/><line style="stroke:#181818;stroke-width:1.0;" x1="367.9444" x2="718.9444" y1="362.5041" y2="362.5041"/><line style="stroke:#181818;stroke-width:1.0;" x1="718.9444" x2="718.9444" y1="362.5041" y2="788.5041"/><text fill="#000000" font-family="sans-serif" font-size="14" font-weight="bold" lengthAdjust="spacing" textLength="165" x="461.9444" y="380.47">Namespace: Production</text></g><!--cluster Namespace: Monitoring--><g id="cluster_Namespace: Monitoring"><polygon fill="#ADD8E6" points="101.9444,205.5041,111.9444,195.5041,343.9444,195.5041,343.9444,450.5041,333.9444,460.5041,101.9444,460.5041,101.9444,205.5041" style="stroke:#181818;stroke-width:1.0;"/><line style="stroke:#181818;stroke-width:1.0;" x1="333.9444" x2="343.9444" y1="205.5041" y2="195.5041"/><line style="stroke:#181818;stroke-width:1.0;" x1="101.9444" x2="333.9444" y1="205.5041" y2="205.5041"/><line style="stroke:#181818;stroke-width:1.0;" x1="333.9444" x2="333.9444" y1="205.5041" y2="460.5041"/><text fill="#000000" font-family="sans-serif" font-size="14" font-weight="bold" lengthAdjust="spacing" textLength="166" x="135.9444" y="223.47">Namespace: Monitoring</text></g><!--cluster PBN--><g id="cluster_PBN"><polygon fill="#ADD8E6" points="776.9444,690.5041,786.9444,680.5041,1045.9444,680.5041,1045.9444,907.5041,1035.9444,917.5041,776.9444,917.5041,776.9444,690.5041" style="stroke:#181818;stroke-width:1.0;"/><line style="stroke:#181818;stroke-width:1.0;" x1="1035.9444" x2="1045.9444" y1="690.5041" y2="680.5041"/><line style="stroke:#181818;stroke-width:1.0;" x1="776.9444" x2="1035.9444" y1="690.5041" y2="690.5041"/><line style="stroke:#181818;stroke-width:1.0;" x1="1035.9444" x2="1035.9444" y1="690.5041" y2="917.5041"/><text fill="#000000" font-family="sans-serif" font-size="14" font-weight="bold" lengthAdjust="spacing" textLength="193" x="810.9444" y="708.47">Private Blockchain Network</text></g><!--cluster Persistent Data Store--><g id="cluster_Persistent Data Store"><path d="M1069.9444,680.5041 C1069.9444,670.5041 1323.4444,670.5041 1323.4444,670.5041 C1323.4444,670.5041 1576.9444,670.5041 1576.9444,680.5041 L1576.9444,778.5041 C1576.9444,788.5041 1323.4444,788.5041 1323.4444,788.5041 C1323.4444,788.5041 1069.9444,788.5041 1069.9444,778.5041 L1069.9444,680.5041 " fill="none" style="stroke:#181818;stroke-width:1.0;"/><path d="M1069.9444,680.5041 C1069.9444,690.5041 1323.4444,690.5041 1323.4444,690.5041 C1323.4444,690.5041 1576.9444,690.5041 1576.9444,680.5041 " fill="none" style="stroke:#181818;stroke-width:1.0;"/><text fill="#000000" font-family="sans-serif" font-size="14" font-weight="bold" lengthAdjust="spacing" textLength="147" x="1249.9444" y="707.47">Persistent Data Store</text></g><!--entity Client--><g id="elem_Client"><rect fill="#F1F1F1" height="49.0679" rx="2.5" ry="2.5" style="stroke:#181818;stroke-width:0.5;" width="219" x="1641.4444" y="554.5041"/><rect fill="#F1F1F1" height="10" style="stroke:#181818;stroke-width:0.5;" width="15" x="1840.4444" y="559.5041"/><rect fill="#F1F1F1" height="2" style="stroke:#181818;stroke-width:0.5;" width="4" x="1838.4444" y="561.5041"/><rect fill="#F1F1F1" height="2" style="stroke:#181818;stroke-width:0.5;" width="4" x="1838.4444" y="565.5041"/><text fill="#000000" font-family="sans-serif" font-size="14" lengthAdjust="spacing" textLength="179" x="1656.4444" y="589.47">Web Browser / Mobile App</text></g><!--entity Gateway--><g id="elem_Gateway"><rect fill="#F1F1F1" height="49.0679" rx="2.5" ry="2.5" style="stroke:#181818;stroke-width:0.5;" width="123" x="384.4444" y="395.5041"/><rect fill="#F1F1F1" height="10" style="stroke:#181818;stroke-width:0.5;" width="15" x="487.4444" y="400.5041"/><rect fill="#F1F1F1" height="2" style="stroke:#181818;stroke-width:0.5;" width="4" x="485.4444" y="402.5041"/><rect fill="#F1F1F1" height="2" style="stroke:#181818;stroke-width:0.5;" width="4" x="485.4444" y="406.5041"/><text fill="#000000" font-family="sans-serif" font-size="14" lengthAdjust="spacing" textLength="83" x="399.4444" y="430.47">API Gateway</text></g><!--entity OrderSrv--><g id="elem_OrderSrv"><rect fill="#F1F1F1" height="49.0679" rx="2.5" ry="2.5" style="stroke:#181818;stroke-width:0.5;" width="226" x="434.9444" y="554.5041"/><rect fill="#F1F1F1" height="10" style="stroke:#181818;stroke-width:0.5;" width="15" x="640.9444" y="559.5041"/><rect fill="#F1F1F1" height="2" style="stroke:#181818;stroke-width:0.5;" width="4" x="638.9444" y="561.5041"/><rect fill="#F1F1F1" height="2" style="stroke:#181818;stroke-width:0.5;" width="4" x="638.9444" y="565.5041"/><text fill="#000000" font-family="sans-serif" font-size="14" lengthAdjust="spacing" textLength="186" x="449.9444" y="589.47">Order Management Service</text></g><!--entity NotifSrv--><g id="elem_NotifSrv"><rect fill="#F1F1F1" height="49.0679" rx="2.5" ry="2.5" style="stroke:#181818;stroke-width:0.5;" width="170" x="542.9444" y="395.5041"/><rect fill="#F1F1F1" height="10" style="stroke:#181818;stroke-width:0.5;" width="15" x="692.9444" y="400.5041"/><rect fill="#F1F1F1" height="2" style="stroke:#181818;stroke-width:0.5;" width="4" x="690.9444" y="402.5041"/><rect fill="#F1F1F1" height="2" style="stroke:#181818;stroke-width:0.5;" width="4" x="690.9444" y="406.5041"/><text fill="#000000" font-family="sans-serif" font-size="14" lengthAdjust="spacing" textLength="130" x="557.9444" y="430.47">Notification Service</text></g><!--entity Engine--><g id="elem_Engine"><rect fill="#F1F1F1" height="49.0679" rx="2.5" ry="2.5" style="stroke:#181818;stroke-width:0.5;" width="155" x="470.4444" y="723.5041"/><rect fill="#F1F1F1" height="10" style="stroke:#181818;stroke-width:0.5;" width="15" x="605.4444" y="728.5041"/><rect fill="#F1F1F1" height="2" style="stroke:#181818;stroke-width:0.5;" width="4" x="603.4444" y="730.5041"/><rect fill="#F1F1F1" height="2" style="stroke:#181818;stroke-width:0.5;" width="4" x="603.4444" y="734.5041"/><text fill="#000000" font-family="sans-serif" font-size="14" lengthAdjust="spacing" textLength="115" x="485.4444" y="758.47">Matching Engine</text></g><!--entity Prometheus--><g id="elem_Prometheus"><rect fill="#F1F1F1" height="49.0679" rx="2.5" ry="2.5" style="stroke:#181818;stroke-width:0.5;" width="168" x="158.9444" y="395.5041"/><rect fill="#F1F1F1" height="10" style="stroke:#181818;stroke-width:0.5;" width="15" x="306.9444" y="400.5041"/><rect fill="#F1F1F1" height="2" style="stroke:#181818;stroke-width:0.5;" width="4" x="304.9444" y="402.5041"/><rect fill="#F1F1F1" height="2" style="stroke:#181818;stroke-width:0.5;" width="4" x="304.9444" y="406.5041"/><text fill="#000000" font-family="sans-serif" font-size="14" lengthAdjust="spacing" textLength="128" x="173.9444" y="430.47">Prometheus Server</text></g><!--entity Grafana--><g id="elem_Grafana"><rect fill="#F1F1F1" height="49.0679" rx="2.5" ry="2.5" style="stroke:#181818;stroke-width:0.5;" width="172" x="155.9444" y="238.5041"/><rect fill="#F1F1F1" height="10" style="stroke:#181818;stroke-width:0.5;" width="15" x="307.9444" y="243.5041"/><rect fill="#F1F1F1" height="2" style="stroke:#181818;stroke-width:0.5;" width="4" x="305.9444" y="245.5041"/><rect fill="#F1F1F1" height="2" style="stroke:#181818;stroke-width:0.5;" width="4" x="305.9444" y="249.5041"/><text fill="#000000" font-family="sans-serif" font-size="14" lengthAdjust="spacing" textLength="132" x="170.9444" y="273.47">Grafana Dashboard</text></g><!--entity EVM--><g id="elem_EVM"><rect fill="#F1F1F1" height="49.0679" rx="2.5" ry="2.5" style="stroke:#181818;stroke-width:0.5;" width="187" x="793.4444" y="723.5041"/><rect fill="#F1F1F1" height="10" style="stroke:#181818;stroke-width:0.5;" width="15" x="960.4444" y="728.5041"/><rect fill="#F1F1F1" height="2" style="stroke:#181818;stroke-width:0.5;" width="4" x="958.4444" y="730.5041"/><rect fill="#F1F1F1" height="2" style="stroke:#181818;stroke-width:0.5;" width="4" x="958.4444" y="734.5041"/><text fill="#000000" font-family="sans-serif" font-size="14" lengthAdjust="spacing" textLength="147" x="808.4444" y="758.47">Ethereum Node (EVM)</text></g><!--entity SC--><g id="elem_SC"><rect fill="#F1F1F1" height="42.0679" rx="2.5" ry="2.5" style="stroke:#181818;stroke-width:0.5;" width="192" x="792.9444" y="859.5041"/><polygon fill="#F1F1F1" points="967.9444,864.5041,967.9444,878.5041,979.9444,878.5041,979.9444,870.5041,973.9444,864.5041,967.9444,864.5041" style="stroke:#181818;stroke-width:0.5;"/><line style="stroke:#181818;stroke-width:0.5;" x1="973.9444" x2="973.9444" y1="864.5041" y2="870.5041"/><line style="stroke:#181818;stroke-width:0.5;" x1="979.9444" x2="973.9444" y1="870.5041" y2="870.5041"/><text fill="#000000" font-family="sans-serif" font-size="14" lengthAdjust="spacing" textLength="162" x="802.9444" y="887.47">Smart Contract (Solidity)</text></g><!--entity DB--><g id="elem_DB"><rect fill="#F1F1F1" height="49.0679" rx="2.5" ry="2.5" style="stroke:#181818;stroke-width:0.5;" width="240" x="1320.9444" y="723.5041"/><rect fill="#F1F1F1" height="10" style="stroke:#181818;stroke-width:0.5;" width="15" x="1540.9444" y="728.5041"/><rect fill="#F1F1F1" height="2" style="stroke:#181818;stroke-width:0.5;" width="4" x="1538.9444" y="730.5041"/><rect fill="#F1F1F1" height="2" style="stroke:#181818;stroke-width:0.5;" width="4" x="1538.9444" y="734.5041"/><text fill="#000000" font-family="sans-serif" font-size="14" lengthAdjust="spacing" textLength="200" x="1335.9444" y="758.47">PostgreSQL (User/Order Data)</text></g><!--entity Cache--><g id="elem_Cache"><rect fill="#F1F1F1" height="49.0679" rx="2.5" ry="2.5" style="stroke:#181818;stroke-width:0.5;" width="200" x="1085.9444" y="723.5041"/><rect fill="#F1F1F1" height="10" style="stroke:#181818;stroke-width:0.5;" width="15" x="1265.9444" y="728.5041"/><rect fill="#F1F1F1" height="2" style="stroke:#181818;stroke-width:0.5;" width="4" x="1263.9444" y="730.5041"/><rect fill="#F1F1F1" height="2" style="stroke:#181818;stroke-width:0.5;" width="4" x="1263.9444" y="734.5041"/><text fill="#000000" font-family="sans-serif" font-size="14" lengthAdjust="spacing" textLength="160" x="1100.9444" y="758.47">Redis (Caching/Session)</text></g><!--link Client to Gateway--><g id="link_Client_Gateway"><path d="M1641.3944,571.0441 C1360.5644,552.7941 629.6344,502.6441 524.9444,468.5041 C508.3644,463.0941 491.5744,453.6841 477.7744,444.6541 " fill="none" id="Client-Gateway" style="stroke:#181818;stroke-width:1.0;"/><text fill="#000000" font-family="sans-serif" font-size="13" lengthAdjust="spacing" textLength="79" x="677.9444" y="491.4011">HTTPS / REST</text></g><!--link Gateway to OrderSrv--><g id="link_Gateway_OrderSrv"><path d="M461.2144,444.5041 C480.4444,474.1041 513.2944,524.6641 532.5744,554.3341 " fill="none" id="Gateway-OrderSrv" style="stroke:#181818;stroke-width:1.0;"/></g><!--link OrderSrv to Engine--><g id="link_OrderSrv_Engine"><path d="M547.9444,603.5741 C547.9444,635.3141 547.9444,691.4641 547.9444,723.2841 " fill="none" id="OrderSrv-Engine" style="stroke:#181818;stroke-width:1.0;"/></g><!--link OrderSrv to DB--><g id="link_OrderSrv_DB"><path d="M661.2844,586.2341 C842.2744,597.2141 1187.9644,622.6941 1303.9444,662.5041 C1344.1244,676.2941 1384.8844,703.5041 1411.3744,723.3241 " fill="none" id="OrderSrv-DB" style="stroke:#181818;stroke-width:1.0;"/></g><!--link OrderSrv to EVM--><g id="link_OrderSrv_EVM"><path d="M602.2244,603.6641 C638.3944,619.6941 686.8444,641.6841 728.9444,662.5041 C768.6744,682.1541 813.1344,706.1141 844.7444,723.4941 " fill="none" id="OrderSrv-EVM" style="stroke:#181818;stroke-width:1.0;"/><text fill="#000000" font-family="sans-serif" font-size="13" lengthAdjust="spacing" textLength="69" x="709.9444" y="650.4011">Web3 / RPC</text></g><!--link EVM to SC--><g id="link_EVM_SC"><path d="M887.3044,772.6341 C887.6844,797.4641 888.2744,836.0841 888.6344,859.4641 " fill="none" id="EVM-SC" style="stroke:#181818;stroke-width:1.0;"/></g><!--link NotifSrv to Client--><g id="link_NotifSrv_Client"><path d="M713.0944,428.5341 C816.0644,437.9941 994.5544,455.5741 1146.9444,476.5041 C1320.3644,500.3241 1520.5144,535.4841 1641.3044,557.5441 " fill="none" id="NotifSrv-Client" style="stroke:#181818;stroke-width:1.0;"/><text fill="#000000" font-family="sans-serif" font-size="13" lengthAdjust="spacing" textLength="138" x="1262.9444" y="491.4011">WebSockets (Socket.io)</text></g><!--link Prometheus to OrderSrv--><g id="link_Prometheus_OrderSrv"><path d="M286.2744,444.6741 C313.6044,459.4841 349.7144,478.8641 381.9444,495.5041 C421.2644,515.8041 466.2344,538.0941 499.4444,554.3841 " fill="none" id="Prometheus-OrderSrv" style="stroke:#181818;stroke-width:1.0;"/><text fill="#000000" font-family="sans-serif" font-size="13" lengthAdjust="spacing" textLength="93" x="382.9444" y="491.4011">Scrapes Metrics</text></g><!--link Grafana to Prometheus--><g id="link_Grafana_Prometheus"><path d="M242.0944,287.5441 C242.2844,316.7641 242.6044,366.2941 242.7944,395.4941 " fill="none" id="Grafana-Prometheus" style="stroke:#181818;stroke-width:1.0;"/><text fill="#000000" font-family="sans-serif" font-size="13" lengthAdjust="spacing" textLength="57" x="243.9444" y="332.4011">Visualizes</text></g><!--SRC=[VLEnSjim3Dtv5JXFzf1cwDBp5ik-D9V8LSF46N8TQ0gMUPP87KWbv_RoxmKfsL66H8jXy05uV7m89jG82t8795KXoACFsC05BB6jtR516s1fL4MgWUdj3mzPtJ62PaBuWx6jYWVMbGZ_1F2tKFfGaUjicRdQ4ToPQXyMTOVYJOY4cpnw96x_OZHEG7buN0wrpq-uZLHU8-0IShSrpEsgRVz4M5OR9XFRwDfr9Kooz7DZTwHye4w7Zf3BbYeeo1YADE76gNC_-BRR8baCUBv5cXzlDU3UiMlLe6-LnZaKv4hkRfoT34HFdtPDwsoKwFcgk85h5V1L7HFR8VuC_ejAlcEkB6kUD9P8KP1KcmublNnMl7R1x8nMaTA7mdJmHM6kWjuRMy7ALiRsDNruhdZxGeZSMHCSSOClX62r6Wnxx7oYXfIcl6S_gxicjMCv-FdyVkiKbRsCVNP4RqIo9rYGUM6nOL4xVT1xPIoiCRmwEgJNBHRh4TdHm1NJ8UmQLetRJ5URVDOBiidFS4KigD819hBX639d0yN_K-bgKvfmdAKXCXlpAjc1M-KZDoHls6XnYQ8j9Sk7O_6U2-T3HIX_ty4qBiPbxuo8xkai5-_WUooDXsccqYjUIlIUBT3ZOX875in3zEi25nSdAy8SVZuy599Nv7ub7yGfpOYpuKv1J0x66AUOomV49kUclBJVOyyY4p71ULP3Y9CNOsBWah2INmc3Zmh6u9jnCp7op8WDuwKcrVAwvXZ8Q2zE9c7Kg6OE6-CxLPk_wCL_]--></g></svg>