<?xml version="1.0" encoding="us-ascii" standalone="no"?><svg xmlns="http://www.w3.org/2000/svg" xmlns:xlink="http://www.w3.org/1999/xlink" contentStyleType="text/css" height="570px" preserveAspectRatio="none" style="width:910px;height:570px;background:#FFFFFF;" version="1.1" viewBox="0 0 910 570" width="910px" zoomAndPan="magnify"><defs/><g><text fill="#000000" font-family="sans-serif" font-size="14" font-weight="bold" lengthAdjust="spacing" textLength="254" x="327.25" y="29.9659">Order Execution - Sequence Diagram</text><rect fill="#FFFFFF" height="311.3541" style="stroke:#181818;stroke-width:1.0;" width="10" x="242.5" y="157.8419"/><rect fill="#FFFFFF" height="76.412" style="stroke:#181818;stroke-width:1.0;" width="10" x="480.5" y="189.5479"/><rect fill="#FFFFFF" height="76.412" style="stroke:#181818;stroke-width:1.0;" width="10" x="645.5" y="297.6659"/><rect fill="#FFFFFF" height="31.706" style="stroke:#181818;stroke-width:1.0;" width="10" x="827.5" y="405.784"/><line style="stroke:#181818;stroke-width:0.5;stroke-dasharray:5.0,5.0;" x1="23" x2="23" y1="124.1358" y2="487.196"/><line style="stroke:#181818;stroke-width:0.5;stroke-dasharray:5.0,5.0;" x1="247.5" x2="247.5" y1="124.1358" y2="487.196"/><line style="stroke:#181818;stroke-width:0.5;stroke-dasharray:5.0,5.0;" x1="485" x2="485" y1="124.1358" y2="487.196"/><line style="stroke:#181818;stroke-width:0.5;stroke-dasharray:5.0,5.0;" x1="650.5" x2="650.5" y1="124.1358" y2="487.196"/><line style="stroke:#181818;stroke-width:0.5;stroke-dasharray:5.0,5.0;" x1="832.5" x2="832.5" y1="124.1358" y2="487.196"/><text fill="#000000" font-family="sans-serif" font-size="14" lengthAdjust="spacing" textLength="31" x="5" y="120.0339">User</text><ellipse cx="23.5" cy="53.5679" fill="#E2E2F0" rx="8" ry="8" style="stroke:#181818;stroke-width:0.5;"/><path d="M23.5,61.5679 L23.5,88.5679 M10.5,69.5679 L36.5,69.5679 M23.5,88.5679 L10.5,103.5679 M23.5,88.5679 L36.5,103.5679 " fill="none" style="stroke:#181818;stroke-width:0.5;"/><text fill="#000000" font-family="sans-serif" font-size="14" lengthAdjust="spacing" textLength="31" x="5" y="501.1619">User</text><ellipse cx="23.5" cy="513.7639" fill="#E2E2F0" rx="8" ry="8" style="stroke:#181818;stroke-width:0.5;"/><path d="M23.5,521.7639 L23.5,548.7639 M10.5,529.7639 L36.5,529.7639 M23.5,548.7639 L10.5,563.7639 M23.5,548.7639 L36.5,563.7639 " fill="none" style="stroke:#181818;stroke-width:0.5;"/><rect fill="#E2E2F0" height="33.0679" rx="2.5" ry="2.5" style="stroke:#181818;stroke-width:0.5;" width="106" x="194.5" y="90.0679"/><text fill="#000000" font-family="sans-serif" font-size="14" lengthAdjust="spacing" textLength="92" x="201.5" y="112.0339">Order Service</text><rect fill="#E2E2F0" height="33.0679" rx="2.5" ry="2.5" style="stroke:#181818;stroke-width:0.5;" width="106" x="194.5" y="486.196"/><text fill="#000000" font-family="sans-serif" font-size="14" lengthAdjust="spacing" textLength="92" x="201.5" y="508.1619">Order Service</text><rect fill="#E2E2F0" height="33.0679" rx="2.5" ry="2.5" style="stroke:#181818;stroke-width:0.5;" width="129" x="421" y="90.0679"/><text fill="#000000" font-family="sans-serif" font-size="14" lengthAdjust="spacing" textLength="115" x="428" y="112.0339">Matching Engine</text><rect fill="#E2E2F0" height="33.0679" rx="2.5" ry="2.5" style="stroke:#181818;stroke-width:0.5;" width="129" x="421" y="486.196"/><text fill="#000000" font-family="sans-serif" font-size="14" lengthAdjust="spacing" textLength="115" x="428" y="508.1619">Matching Engine</text><rect fill="#E2E2F0" height="33.0679" rx="2.5" ry="2.5" style="stroke:#181818;stroke-width:0.5;" width="138" x="581.5" y="90.0679"/><text fill="#000000" font-family="sans-serif" font-size="14" lengthAdjust="spacing" textLength="124" x="588.5" y="112.0339">Blockchain Service</text><rect fill="#E2E2F0" height="33.0679" rx="2.5" ry="2.5" style="stroke:#181818;stroke-width:0.5;" width="138" x="581.5" y="486.196"/><text fill="#000000" font-family="sans-serif" font-size="14" lengthAdjust="spacing" textLength="124" x="588.5" y="508.1619">Blockchain Service</text><rect fill="#E2E2F0" height="33.0679" rx="2.5" ry="2.5" style="stroke:#181818;stroke-width:0.5;" width="144" x="760.5" y="90.0679"/><text fill="#000000" font-family="sans-serif" font-size="14" lengthAdjust="spacing" textLength="130" x="767.5" y="112.0339">Notification Service</text><rect fill="#E2E2F0" height="33.0679" rx="2.5" ry="2.5" style="stroke:#181818;stroke-width:0.5;" width="144" x="760.5" y="486.196"/><text fill="#000000" font-family="sans-serif" font-size="14" lengthAdjust="spacing" textLength="130" x="767.5" y="508.1619">Notification Service</text><rect fill="#FFFFFF" height="311.3541" style="stroke:#181818;stroke-width:1.0;" width="10" x="242.5" y="157.8419"/><rect fill="#FFFFFF" height="76.412" style="stroke:#181818;stroke-width:1.0;" width="10" x="480.5" y="189.5479"/><rect fill="#FFFFFF" height="76.412" style="stroke:#181818;stroke-width:1.0;" width="10" x="645.5" y="297.6659"/><rect fill="#FFFFFF" height="31.706" style="stroke:#181818;stroke-width:1.0;" width="10" x="827.5" y="405.784"/><polygon fill="#181818" points="230.5,153.8419,240.5,157.8419,230.5,161.8419,234.5,157.8419" style="stroke:#181818;stroke-width:1.0;"/><line style="stroke:#181818;stroke-width:1.0;" x1="23.5" x2="236.5" y1="157.8419" y2="157.8419"/><text fill="#000000" font-family="sans-serif" font-size="13" lengthAdjust="spacing" textLength="200" x="30.5" y="152.0328">Place Order (Stock, Price, Volume)</text><polygon fill="#181818" points="468.5,185.5479,478.5,189.5479,468.5,193.5479,472.5,189.5479" style="stroke:#181818;stroke-width:1.0;"/><line style="stroke:#181818;stroke-width:1.0;" x1="252.5" x2="474.5" y1="189.5479" y2="189.5479"/><text fill="#000000" font-family="sans-serif" font-size="13" lengthAdjust="spacing" textLength="148" x="259.5" y="183.7389">Send Order for Matching</text><line style="stroke:#181818;stroke-width:1.0;" x1="490.5" x2="532.5" y1="221.2539" y2="221.2539"/><line style="stroke:#181818;stroke-width:1.0;" x1="532.5" x2="532.5" y1="221.2539" y2="234.2539"/><line style="stroke:#181818;stroke-width:1.0;" x1="491.5" x2="532.5" y1="234.2539" y2="234.2539"/><polygon fill="#181818" points="501.5,230.2539,491.5,234.2539,501.5,238.2539,497.5,234.2539" style="stroke:#181818;stroke-width:1.0;"/><text fill="#000000" font-family="sans-serif" font-size="13" lengthAdjust="spacing" textLength="141" x="497.5" y="215.4449">Process Matching Logic</text><polygon fill="#181818" points="263.5,261.9599,253.5,265.9599,263.5,269.9599,259.5,265.9599" style="stroke:#181818;stroke-width:1.0;"/><line style="stroke:#181818;stroke-width:1.0;stroke-dasharray:2.0,2.0;" x1="257.5" x2="484.5" y1="265.9599" y2="265.9599"/><text fill="#000000" font-family="sans-serif" font-size="13" lengthAdjust="spacing" textLength="204" x="269.5" y="260.1509">Match Found (Transaction Details)</text><polygon fill="#181818" points="633.5,293.6659,643.5,297.6659,633.5,301.6659,637.5,297.6659" style="stroke:#181818;stroke-width:1.0;"/><line style="stroke:#181818;stroke-width:1.0;" x1="252.5" x2="639.5" y1="297.6659" y2="297.6659"/><text fill="#000000" font-family="sans-serif" font-size="13" lengthAdjust="spacing" textLength="146" x="259.5" y="291.8569">Record Final Transaction</text><line style="stroke:#181818;stroke-width:1.0;" x1="655.5" x2="697.5" y1="329.3719" y2="329.3719"/><line style="stroke:#181818;stroke-width:1.0;" x1="697.5" x2="697.5" y1="329.3719" y2="342.3719"/><line style="stroke:#181818;stroke-width:1.0;" x1="656.5" x2="697.5" y1="342.3719" y2="342.3719"/><polygon fill="#181818" points="666.5,338.3719,656.5,342.3719,666.5,346.3719,662.5,342.3719" style="stroke:#181818;stroke-width:1.0;"/><text fill="#000000" font-family="sans-serif" font-size="13" lengthAdjust="spacing" textLength="158" x="662.5" y="323.5629">Store in Private Blockchain</text><polygon fill="#181818" points="263.5,370.0779,253.5,374.0779,263.5,378.0779,259.5,374.0779" style="stroke:#181818;stroke-width:1.0;"/><line style="stroke:#181818;stroke-width:1.0;stroke-dasharray:2.0,2.0;" x1="257.5" x2="649.5" y1="374.0779" y2="374.0779"/><text fill="#000000" font-family="sans-serif" font-size="13" lengthAdjust="spacing" textLength="136" x="269.5" y="368.2689">Transaction Confirmed</text><polygon fill="#181818" points="815.5,401.784,825.5,405.784,815.5,409.784,819.5,405.784" style="stroke:#181818;stroke-width:1.0;"/><line style="stroke:#181818;stroke-width:1.0;" x1="252.5" x2="821.5" y1="405.784" y2="405.784"/><text fill="#000000" font-family="sans-serif" font-size="13" lengthAdjust="spacing" textLength="91" x="259.5" y="399.975">Trigger Update</text><polygon fill="#181818" points="34.5,433.49,24.5,437.49,34.5,441.49,30.5,437.49" style="stroke:#181818;stroke-width:1.0;"/><line style="stroke:#181818;stroke-width:1.0;" x1="28.5" x2="831.5" y1="437.49" y2="437.49"/><text fill="#000000" font-family="sans-serif" font-size="13" lengthAdjust="spacing" textLength="213" x="40.5" y="431.681">Send Real-time Notification (Socket)</text><polygon fill="#181818" points="34.5,465.196,24.5,469.196,34.5,473.196,30.5,469.196" style="stroke:#181818;stroke-width:1.0;"/><line style="stroke:#181818;stroke-width:1.0;stroke-dasharray:2.0,2.0;" x1="28.5" x2="246.5" y1="469.196" y2="469.196"/><text fill="#000000" font-family="sans-serif" font-size="13" lengthAdjust="spacing" textLength="158" x="40.5" y="463.387">Order Fulfilled Successfully</text><!--SRC=[NP7DRi8m48JlUOeL9v3W1Nhe8IMSIa2uzBwoDs5LnwQEWzgtx-QF93tlD-EPSUHe2Kx1K83iXtGJsJlOWQBlXfmcs3EM0QiaGHrzW6jD8RbZYApvZYx2gjSg2W_Mj0AiuQIMn16Zlh4h8NCbkvuvPaicjLv_wHkoMrYb_wno7xbWZLtAEPYh96cpmUvLteSNE5lKOx6rYkA-XNCGV0kVtZOLRTf6_C18RU14H28zPY9LvCoWBAJo67_Y9Ro08tuENbDTFpbuzoNhZXZ3T2Su-4QCrny1NTrwIOKzHMHRRn93S_SXJTfgBwHzC71WXnPcsYcEZ9HEl7GD1BAZjEtFpsaxRCmqZ_7cNS6X8ZFFaJvNoNkUor8ckTwDNAVNPVcyexhvX_KkX7ONkPBp_CVMIg9GNDJDXsScXtxwGsCBjfOCg4Qt0nUDjRzpfNpR7m00]--></g></svg>